<svg width="29" height="32" viewBox="0 0 29 32" fill="none" xmlns="http://www.w3.org/2000/svg">
<path d="M5.81234 30.984C5.28434 31.512 4.60034 31.764 3.76034 31.74C2.94434 31.74 2.24834 31.44 1.67234 30.84C1.38434 30.384 1.16834 29.892 1.02434 29.364C0.856344 28.836 0.784344 28.368 0.808344 27.96C0.808344 27.576 0.928344 27.384 1.16834 27.384C1.28834 27.384 1.39634 27.42 1.49234 27.492C1.58834 27.564 1.67234 27.66 1.74434 27.78C1.81634 27.924 1.85234 28.092 1.85234 28.284C1.85234 28.644 1.93634 28.968 2.10434 29.256C2.27234 29.544 2.51234 29.688 2.82434 29.688C3.08834 29.784 3.43634 29.712 3.86834 29.472C4.32434 29.232 4.68434 28.896 4.94834 28.464C5.18834 28.152 5.47634 27.66 5.81234 26.988C6.17234 26.316 6.52034 25.608 6.85634 24.864C7.21634 24.144 7.48034 23.556 7.64834 23.1C7.93634 22.116 8.18834 21.108 8.40434 20.076C8.64434 19.044 8.88434 17.94 9.12434 16.764C9.22034 16.116 9.32834 15.564 9.44834 15.108C9.59234 14.628 9.66434 14.34 9.66434 14.244C9.66434 14.148 9.67634 13.956 9.70034 13.668C9.72434 13.356 9.79634 13.08 9.91634 12.84C9.91634 12.48 9.94034 12.168 9.98834 11.904C10.0603 11.616 10.0963 11.424 10.0963 11.328C10.1683 11.256 10.2643 11.232 10.3843 11.256C10.5283 11.28 10.6723 11.328 10.8163 11.4C10.9843 11.472 11.1283 11.568 11.2483 11.688C11.4403 11.88 11.5603 12.072 11.6083 12.264C11.6803 12.456 11.6923 12.756 11.6443 13.164C11.6203 13.572 11.5483 14.22 11.4283 15.108C11.4283 15.252 11.3923 15.552 11.3203 16.008C11.2483 16.44 11.1523 16.932 11.0323 17.484C10.9123 18.036 10.7923 18.576 10.6723 19.104C10.5523 19.608 10.4563 20.028 10.3843 20.364C10.2883 20.724 10.1803 21.12 10.0603 21.552C9.94034 21.984 9.86834 22.284 9.84434 22.452C9.82034 22.596 9.73634 22.884 9.59234 23.316C9.44834 23.724 9.29234 24.132 9.12434 24.54C8.98034 24.948 8.89634 25.236 8.87234 25.404C8.84834 25.5 8.77634 25.728 8.65634 26.088C8.56034 26.448 8.34434 27 8.00834 27.744C7.88834 28.032 7.68434 28.404 7.39634 28.86C7.13234 29.316 6.85634 29.736 6.56834 30.12C6.28034 30.528 6.02834 30.816 5.81234 30.984ZM11.5003 6.54C11.2363 6.228 11.1403 5.82 11.2123 5.316C11.3083 4.812 11.5483 4.308 11.9323 3.804C12.2443 3.444 12.5803 3.24 12.9403 3.192C13.3003 3.144 13.6363 3.252 13.9483 3.516C14.2123 3.924 14.3443 4.26 14.3443 4.524C14.3443 4.764 14.2123 5.076 13.9483 5.46C13.3483 6.132 12.8683 6.552 12.5083 6.72C12.1483 6.864 11.8123 6.804 11.5003 6.54ZM25.94 22.884C25.34 23.172 24.8 23.256 24.32 23.136C23.84 22.992 23.456 22.668 23.168 22.164C22.904 21.66 22.772 21.024 22.772 20.256C22.772 19.992 22.808 19.596 22.88 19.068C22.976 18.54 23.084 17.988 23.204 17.412C23.324 16.812 23.456 16.296 23.6 15.864C23.672 15.648 23.72 15.48 23.744 15.36C23.792 15.24 23.768 15.18 23.672 15.18C23.576 15.18 23.456 15.24 23.312 15.36C23.192 15.48 23.096 15.576 23.024 15.648C22.496 16.08 21.944 16.608 21.368 17.232C20.816 17.856 20.3 18.492 19.82 19.14C19.34 19.764 18.944 20.34 18.632 20.868C18.344 21.396 18.2 21.78 18.2 22.02C18.2 22.38 18.02 22.632 17.66 22.776C17.3 22.92 16.988 22.908 16.724 22.74C16.268 22.476 15.98 22.164 15.86 21.804C15.764 21.42 15.752 20.784 15.824 19.896C15.896 18.768 15.992 17.76 16.112 16.872C16.232 15.984 16.424 15.024 16.688 13.992C16.976 12.936 17.348 11.652 17.804 10.14C18.116 9.3 18.404 8.508 18.668 7.764C18.932 6.996 19.16 6.348 19.352 5.82C19.568 5.292 19.7 4.968 19.748 4.848C19.868 4.728 20.024 4.44 20.216 3.984C20.408 3.504 20.576 3.024 20.72 2.544C20.888 2.064 20.972 1.776 20.972 1.68C20.972 1.488 21.008 1.32 21.08 1.176C21.152 1.008 21.236 0.875999 21.332 0.779999C21.428 0.683998 21.512 0.599999 21.584 0.528C21.656 0.455999 21.692 0.419999 21.692 0.419999C21.812 0.419999 21.956 0.455999 22.124 0.528C22.316 0.599999 22.496 0.707999 22.664 0.852C22.832 0.972 22.94 1.128 22.988 1.32C23.156 1.656 23.24 2.004 23.24 2.364C23.24 2.7 23.132 3.12 22.916 3.624C22.724 4.128 22.388 4.824 21.908 5.712C21.524 6.456 21.176 7.224 20.864 8.016C20.552 8.808 20.252 9.636 19.964 10.5C19.844 10.86 19.676 11.364 19.46 12.012C19.268 12.66 19.064 13.332 18.848 14.028C18.656 14.724 18.488 15.348 18.344 15.9C18.224 16.428 18.164 16.764 18.164 16.908C18.164 17.076 18.26 17.16 18.452 17.16C18.644 17.136 18.836 16.992 19.028 16.728C19.124 16.536 19.328 16.296 19.64 16.008C19.952 15.72 20.204 15.492 20.396 15.324C20.588 15.156 20.852 14.916 21.188 14.604C21.524 14.292 21.884 13.98 22.268 13.668C22.652 13.332 23.012 13.056 23.348 12.84C23.684 12.6 23.948 12.48 24.14 12.48C24.452 12.48 24.74 12.6 25.004 12.84C25.268 13.056 25.448 13.296 25.544 13.56C25.616 13.632 25.688 13.728 25.76 13.848C25.832 13.944 25.88 14.016 25.904 14.064C26.024 14.16 26.024 14.58 25.904 15.324C25.808 16.044 25.568 16.98 25.184 18.132C24.968 19.02 24.788 19.776 24.644 20.4C24.524 21 24.56 21.3 24.752 21.3C24.752 21.3 24.872 21.228 25.112 21.084C25.376 20.94 25.652 20.784 25.94 20.616C26.636 20.16 27.236 19.896 27.74 19.824C28.268 19.728 28.532 19.812 28.532 20.076C28.532 20.172 28.496 20.268 28.424 20.364C28.352 20.436 28.316 20.52 28.316 20.616C28.316 20.616 28.316 20.628 28.316 20.652C28.316 20.652 28.316 20.7 28.316 20.796C28.316 20.844 28.16 21.036 27.848 21.372C27.536 21.684 27.188 22.008 26.804 22.344C26.444 22.656 26.156 22.836 25.94 22.884Z" fill="white"/>
</svg>
